<?xml version="1.0" standalone="no"?>
<!DOCTYPE svg PUBLIC "-//W3C//DTD SVG 20010904//EN"
 "http://www.w3.org/TR/2001/REC-SVG-20010904/DTD/svg10.dtd">
<svg version="1.0" xmlns="http://www.w3.org/2000/svg"
 width="520.000000pt" height="520.000000pt" viewBox="0 0 520.000000 520.000000"
 preserveAspectRatio="xMidYMid meet">

<g transform="translate(0.000000,520.000000) scale(0.100000,-0.100000)"
fill="#000000" stroke="none">
<path d="M0 2600 l0 -2600 2600 0 2600 0 0 2600 0 2600 -2600 0 -2600 0 0
-2600z m5100 0 l0 -2500 -2500 0 -2500 0 0 2500 0 2500 2500 0 2500 0 0 -2500z"/>
<path d="M2267 4863 c-12 -11 -8 -23 8 -23 8 0 15 7 15 15 0 16 -12 20 -23 8z"/>
<path d="M690 4730 c-192 -5 -208 -7 -252 -29 -32 -17 -51 -34 -58 -55 -7 -17
-16 -39 -21 -48 -5 -9 -8 -291 -7 -638 1 -612 1 -622 22 -663 40 -80 34 -79
549 -81 l452 -1 36 23 c72 44 69 17 69 727 0 697 3 666 -60 719 -17 14 -48 30
-68 35 -46 12 -387 18 -662 11z m580 -190 c18 -10 19 -29 15 -483 -2 -259 -4
-511 -5 -559 0 -77 -2 -89 -20 -98 -27 -15 -662 -15 -690 0 -20 11 -20 20 -20
562 0 499 2 553 17 570 15 17 39 18 350 18 204 0 342 -4 353 -10z"/>
<path d="M1136 4166 c-5 -22 -12 -26 -41 -26 -19 0 -35 -5 -35 -11 0 -6 9 -9
20 -6 11 3 20 2 20 -2 0 -4 16 -5 35 -3 32 4 34 6 29 31 -10 39 -21 46 -28 17z"/>
<path d="M1226 4173 c-6 -14 -5 -15 5 -6 7 7 10 15 7 18 -3 3 -9 -2 -12 -12z"/>
<path d="M1225 4141 c-6 -11 13 -26 22 -17 4 3 0 6 -8 6 -11 0 -11 2 1 10 9 6
10 10 3 10 -6 0 -14 -4 -18 -9z"/>
<path d="M1130 4008 c0 -34 2 -34 18 -1 9 17 9 22 -3 27 -11 4 -15 -2 -15 -26z"/>
<path d="M950 4015 c0 -24 20 -56 31 -50 16 11 10 44 -11 55 -16 9 -20 8 -20
-5z"/>
<path d="M1088 4008 c-2 -14 -15 -29 -33 -37 -28 -14 -29 -14 -7 -22 24 -9 28
-19 12 -35 -9 -9 1 -12 52 -15 9 0 19 -6 21 -13 4 -9 -2 -11 -19 -8 -26 5 -57
-14 -48 -29 3 -5 -3 -12 -12 -16 -10 -4 -19 -2 -22 5 -2 7 -7 12 -12 12 -9 0
-7 -26 2 -36 16 -16 -7 -34 -42 -34 -21 0 -41 -6 -43 -12 -4 -10 -8 -10 -15 1
-6 8 -18 11 -29 7 -13 -4 -25 0 -34 11 -12 15 -12 16 3 11 11 -5 18 0 22 15 4
17 8 19 18 9 17 -17 31 -15 24 4 -4 12 -2 15 9 10 8 -3 15 -1 15 4 0 6 -7 10
-17 10 -9 0 -14 3 -11 6 4 3 22 1 42 -4 21 -6 36 -7 36 -1 0 5 7 9 15 9 24 0
17 20 -7 21 -17 1 -19 2 -5 6 9 2 17 9 17 14 0 6 5 7 10 4 6 -3 10 1 10 9 0
22 -16 28 -30 10 -9 -10 -15 -11 -20 -4 -5 8 -15 8 -34 0 -30 -11 -27 -30 5
-30 10 0 19 -4 19 -9 0 -5 -18 -7 -40 -4 -28 4 -40 2 -40 -7 0 -8 -9 -10 -27
-6 -16 3 -22 3 -15 0 22 -10 13 -24 -16 -24 -41 0 -45 -10 -17 -36 28 -26 32
-44 10 -44 -14 0 -19 12 -16 33 0 4 -8 7 -18 7 -11 0 -23 5 -26 10 -7 11 17
40 32 40 12 0 15 48 3 55 -9 6 -14 -8 -11 -28 1 -4 -6 -10 -14 -13 -8 -3 -13
-10 -10 -14 3 -4 -2 -13 -10 -20 -8 -7 -15 -24 -15 -37 0 -23 3 -25 30 -19 30
6 38 -2 20 -19 -6 -7 6 -9 30 -9 39 2 53 -9 28 -19 -18 -8 11 -27 29 -20 7 3
13 0 13 -6 0 -6 -7 -11 -15 -11 -21 0 -19 -13 5 -28 16 -10 20 -10 21 0 1 7 2
18 4 23 1 6 3 18 3 28 3 26 44 18 57 -10 5 -13 17 -23 25 -23 13 0 13 2 1 9
-12 8 -13 14 -3 35 13 29 37 34 46 11 3 -8 12 -15 21 -15 8 0 15 -7 15 -15 0
-8 -4 -15 -8 -15 -11 0 -3 -58 9 -65 4 -3 13 4 19 15 7 13 7 20 0 20 -5 0 -10
7 -10 16 0 13 3 14 14 5 8 -7 17 -8 20 -3 7 11 56 3 56 -9 0 -17 52 -31 64
-18 8 8 8 13 -1 16 -7 3 -13 11 -13 18 0 8 -13 15 -32 17 -25 2 -34 9 -38 28
-3 14 -14 26 -25 28 -11 2 -24 9 -30 14 -7 8 -6 9 3 4 6 -4 12 -2 12 4 0 6 -6
13 -14 16 -8 3 -13 13 -11 22 1 9 -2 20 -7 23 -6 4 7 10 27 13 34 7 36 9 31
34 -4 15 -17 35 -28 45 -17 14 -20 23 -12 35 11 19 7 62 -6 62 -5 0 -10 -10
-12 -22z m-113 -248 c3 -5 -1 -10 -9 -10 -9 0 -16 5 -16 10 0 6 4 10 9 10 6 0
13 -4 16 -10z m115 0 c0 -5 -7 -10 -16 -10 -8 0 -12 5 -9 10 3 6 10 10 16 10
5 0 9 -4 9 -10z m46 -47 c-10 -10 -19 5 -10 18 6 11 8 11 12 0 2 -7 1 -15 -2
-18z"/>
<path d="M865 3901 c-3 -6 3 -9 14 -8 11 0 17 5 15 9 -7 11 -22 10 -29 -1z"/>
<path d="M1197 3854 c-12 -12 -8 -24 8 -24 8 0 15 -5 15 -11 0 -6 -6 -9 -13
-6 -8 3 -13 -3 -13 -14 0 -11 6 -19 13 -19 7 0 13 -7 13 -15 0 -8 6 -15 13
-15 8 0 14 12 14 30 0 17 -5 30 -11 30 -6 0 -5 5 2 12 7 7 12 19 11 28 0 10
-2 11 -6 3 -6 -16 -30 -17 -35 -2 -2 5 -7 7 -11 3z"/>
<path d="M1025 3687 c-8 -19 -2 -31 13 -26 5 2 6 13 2 24 -7 19 -8 19 -15 2z"/>
<path d="M807 3673 c-4 -3 1 -11 10 -18 10 -8 14 -19 9 -30 -5 -13 -10 -15
-18 -7 -6 6 -17 8 -25 5 -8 -3 -19 0 -24 8 -6 10 -9 6 -9 -13 0 -24 4 -28 28
-28 15 0 37 -3 50 -6 16 -5 22 -2 22 9 0 11 9 14 33 12 21 -2 39 4 54 17 23
21 60 18 47 -3 -5 -8 -3 -9 5 -5 9 6 9 12 -3 25 -9 10 -13 21 -9 24 3 4 -3 7
-15 7 -12 0 -23 -8 -27 -20 -4 -11 -15 -20 -26 -20 -11 0 -17 -4 -14 -10 3 -5
-1 -10 -9 -10 -9 0 -16 7 -16 15 0 8 -7 15 -15 15 -8 0 -15 9 -15 20 0 19 -20
27 -33 13z"/>
<path d="M770 3660 c0 -5 5 -10 11 -10 5 0 7 5 4 10 -3 6 -8 10 -11 10 -2 0
-4 -4 -4 -10z"/>
<path d="M1193 3625 c-6 -7 -9 -16 -6 -19 4 -3 0 -6 -7 -6 -11 0 -11 -3 -2
-12 20 -20 13 -30 -17 -26 -17 2 -28 1 -25 -4 3 -4 12 -8 20 -8 28 0 15 -30
-13 -31 -16 0 -22 -3 -15 -6 6 -2 12 -11 12 -20 0 -22 -33 -11 -40 13 -3 15
-10 19 -23 15 -17 -6 -16 -8 3 -28 11 -12 20 -26 20 -30 0 -4 12 -17 27 -27
23 -17 26 -18 35 -2 12 21 42 22 34 1 -3 -8 -1 -15 4 -15 14 0 12 22 -4 43
-10 12 -15 14 -18 6 -5 -16 -28 -2 -28 16 0 10 9 14 30 11 20 -2 30 1 30 10 0
17 12 18 28 2 9 -9 12 0 12 43 -1 44 -5 57 -23 70 -18 13 -25 14 -34 4z"/>
<path d="M1015 3610 c-10 -11 -16 -23 -12 -26 10 -10 47 7 47 21 0 23 -16 26
-35 5z"/>
<path d="M1100 3600 c0 -5 5 -10 10 -10 6 0 10 5 10 10 0 6 -4 10 -10 10 -5 0
-10 -4 -10 -10z"/>
<path d="M776 3505 c4 -8 8 -15 10 -15 2 0 4 7 4 15 0 8 -4 15 -10 15 -5 0 -7
-7 -4 -15z"/>
<path d="M1979 4730 c-64 -8 -135 -62 -145 -110 -3 -19 -8 -399 -10 -845 -2
-445 -3 -830 -4 -855 l0 -45 -717 -1 -717 -1 -18 -23 c-21 -25 -24 -86 -6
-125 l11 -25 784 0 c831 0 829 0 847 45 3 9 6 306 6 660 0 439 3 646 11 650 5
4 85 6 177 5 155 -1 168 -2 189 -22 l23 -21 0 -663 0 -662 30 -12 c35 -14 113
-9 135 10 13 11 15 103 15 717 0 700 0 706 -21 743 -12 21 -39 48 -61 60 -37
21 -52 22 -266 23 l-227 2 -3 110 c-4 130 2 169 29 196 18 18 35 19 257 19
275 1 273 0 280 82 7 90 10 89 -294 91 -143 2 -280 0 -305 -3z"/>
<path d="M2790 4728 c-49 -14 -76 -43 -101 -107 -18 -48 -20 -72 -17 -166 5
-127 26 -180 88 -218 l35 -22 961 -3 962 -3 1 -742 c1 -847 -7 -773 94 -784
43 -4 62 -2 82 11 l25 16 0 783 c0 742 -1 784 -19 817 -10 19 -30 44 -45 55
-27 20 -38 20 -986 20 -947 0 -959 0 -975 20 -11 14 -15 35 -12 73 7 96 -94
87 1020 89 l982 3 18 21 c24 29 23 103 -2 128 -18 18 -56 18 -1047 19 -633 0
-1042 -4 -1064 -10z"/>
<path d="M1728 4693 c7 -3 16 -2 19 1 4 3 -2 6 -13 5 -11 0 -14 -3 -6 -6z"/>
<path d="M2241 4351 c-19 -15 -22 -23 -16 -49 7 -33 26 -41 55 -22 18 11 20
30 6 48 -7 9 -6 16 3 21 10 6 9 10 -4 15 -21 7 -16 9 -44 -13z"/>
<path d="M2310 4349 c0 -11 5 -19 10 -19 6 0 10 4 10 9 0 5 9 7 20 4 15 -4 19
-2 15 10 -9 22 -55 19 -55 -4z"/>
<path d="M2334 4323 c-6 -2 -9 -15 -6 -28 4 -21 6 -22 18 -10 23 22 15 48 -12
38z"/>
<path d="M1692 4201 c-11 -7 -11 -9 2 -14 10 -4 16 -1 16 8 0 17 -1 17 -18 6z"/>
<path d="M1705 4130 c3 -5 8 -10 11 -10 2 0 4 5 4 10 0 6 -5 10 -11 10 -5 0
-7 -4 -4 -10z"/>
<path d="M4110 3988 c0 -5 5 -6 10 -3 6 4 10 -5 10 -20 0 -22 3 -25 20 -20 16
5 20 2 20 -15 0 -20 1 -20 16 -6 17 18 34 13 34 -10 0 -8 10 -14 24 -14 33 0
56 -52 32 -75 -10 -10 -14 -25 -11 -38 3 -12 7 -32 8 -45 1 -17 4 -19 13 -10
15 16 21 59 10 76 -5 8 -1 21 10 33 17 19 17 21 -27 64 -24 24 -49 44 -56 45
-6 0 -20 11 -30 23 -12 16 -29 24 -51 24 -17 0 -32 -4 -32 -9z"/>
<path d="M4297 3984 c-9 -10 25 -98 43 -109 6 -4 8 -11 5 -16 -4 -5 -1 -9 4
-9 6 0 11 -6 11 -14 0 -17 42 -26 64 -14 18 10 36 3 36 -14 0 -6 -10 -8 -24
-4 -28 7 -44 -10 -27 -27 6 -6 11 -28 11 -48 0 -47 8 -69 26 -69 8 0 14 -6 14
-13 0 -14 40 -37 65 -37 16 0 29 -35 20 -50 -4 -6 -1 -18 6 -27 11 -13 10 -18
-11 -35 -22 -18 -23 -21 -7 -29 9 -6 17 -16 17 -24 0 -24 32 -32 80 -19 39 11
42 13 22 20 -18 5 -22 13 -20 33 3 24 0 26 -28 24 -30 -3 -32 -1 -32 33 0 22
4 33 12 31 6 -3 10 -10 8 -16 -1 -6 5 -11 13 -11 11 0 14 8 10 29 -3 17 -1 33
5 36 6 4 7 -1 3 -10 -4 -13 -1 -16 18 -13 20 2 24 9 27 46 2 25 -1 42 -7 42
-6 0 -11 7 -11 15 0 9 -7 18 -16 22 -11 4 -13 13 -9 34 5 22 3 29 -9 29 -9 0
-16 -4 -16 -10 0 -5 -11 -10 -25 -10 -14 0 -25 -4 -25 -10 0 -5 7 -10 15 -10
8 0 15 -5 15 -11 0 -6 -6 -8 -12 -5 -7 3 -21 9 -30 12 -10 4 -18 10 -18 15 0
5 -9 9 -20 9 -11 0 -20 5 -20 11 0 7 11 9 28 6 l27 -5 -30 24 c-16 13 -26 24
-21 24 6 0 1 6 -9 14 -18 13 -18 14 3 20 12 4 19 12 16 18 -4 6 -10 6 -17 -1
-16 -16 -27 -13 -21 4 4 8 2 15 -4 15 -6 0 -18 3 -28 7 -13 5 -16 3 -11 -10 3
-9 2 -17 -3 -17 -6 0 -10 5 -10 11 0 7 -6 17 -14 23 -7 6 -17 24 -20 40 -7 27
-5 28 19 22 30 -8 34 9 5 24 -11 6 -20 7 -20 2 0 -5 -16 -9 -35 -10 -21 -1
-33 3 -30 8 7 11 2 13 -8 4z m181 -242 c2 -7 -6 -12 -17 -12 -21 0 -27 11 -14
24 9 9 26 2 31 -12z m131 -113 c-10 -20 -39 -23 -46 -4 -3 11 37 34 50 28 4
-3 2 -13 -4 -24z m-82 15 c-3 -3 -12 -4 -19 -1 -8 3 -5 6 6 6 11 1 17 -2 13
-5z"/>
<path d="M4560 3966 c0 -8 5 -18 10 -21 6 -3 10 3 10 14 0 12 -4 21 -10 21 -5
0 -10 -6 -10 -14z"/>
<path d="M3337 3963 c-9 -2 -15 -9 -12 -14 9 -14 32 -11 39 6 6 15 4 16 -27 8z"/>
<path d="M4460 3959 c0 -5 5 -7 10 -4 6 3 10 8 10 11 0 2 -4 4 -10 4 -5 0 -10
-5 -10 -11z"/>
<path d="M1740 3938 c0 -9 5 -20 10 -23 6 -3 10 -15 10 -25 0 -13 5 -17 15
-14 17 7 20 44 4 44 -7 0 -18 8 -25 18 -12 16 -13 16 -14 0z"/>
<path d="M3128 3943 c7 -3 16 -2 19 1 4 3 -2 6 -13 5 -11 0 -14 -3 -6 -6z"/>
<path d="M4575 3900 c-5 -9 -4 -15 3 -18 7 -2 12 -10 12 -18 0 -13 -12 -18
-35 -15 -5 1 -2 -5 8 -13 13 -10 14 -15 6 -18 -9 -3 -7 -6 4 -11 9 -3 17 -2
17 2 0 5 10 7 23 5 12 -2 16 -2 10 2 -19 9 -16 34 5 34 13 0 14 2 4 9 -8 4
-13 11 -13 15 1 3 -1 5 -4 4 -2 -2 -10 6 -18 16 -11 15 -16 16 -22 6z"/>
<path d="M2782 3890 c-122 -8 -112 42 -112 -595 0 -519 1 -544 19 -566 l19
-24 644 -3 c353 -1 653 0 665 3 37 9 53 33 53 81 0 31 -6 50 -20 64 -22 22
-53 23 -882 21 l-308 -1 0 160 0 160 579 0 c661 0 621 -5 624 84 2 39 -2 51
-22 67 -22 18 -47 19 -597 19 l-574 0 2 188 3 187 565 0 c311 1 572 2 580 3
28 4 41 19 49 54 12 52 -10 98 -46 98 -296 4 -1187 4 -1241 0z"/>
<path d="M4510 3880 c0 -5 5 -10 10 -10 6 0 10 5 10 10 0 6 -4 10 -10 10 -5 0
-10 -4 -10 -10z"/>
<path d="M2285 3860 c-22 -4 -33 -8 -25 -9 21 -2 80 -59 80 -78 0 -9 -8 -22
-17 -30 -17 -14 -17 -14 0 -9 10 3 26 6 34 6 12 0 13 3 5 13 -6 7 -14 33 -17
57 -5 32 -4 41 4 30 5 -8 13 -11 17 -7 9 9 -15 37 -30 36 -6 -1 -29 -5 -51 -9z"/>
<path d="M4248 3863 c7 -3 16 -2 19 1 4 3 -2 6 -13 5 -11 0 -14 -3 -6 -6z"/>
<path d="M1732 3793 c5 -7 8 -19 5 -26 -5 -14 27 -40 37 -30 3 3 3 17 0 29 -4
15 -2 24 5 24 6 0 11 4 11 8 0 4 -16 8 -35 8 -27 0 -32 -3 -23 -13z"/>
<path d="M4320 3776 c0 -21 21 -31 31 -15 14 22 11 29 -11 29 -11 0 -20 -6
-20 -14z"/>
<path d="M4632 3779 c2 -7 10 -15 17 -17 8 -3 12 1 9 9 -2 7 -10 15 -17 17 -8
3 -12 -1 -9 -9z"/>
<path d="M1686 3754 c-9 -22 -8 -24 9 -24 8 0 15 9 15 20 0 24 -15 27 -24 4z"/>
<path d="M2343 3682 c1 -28 6 -38 15 -34 16 6 12 64 -5 70 -9 2 -12 -8 -10
-36z"/>
<path d="M1680 3668 c0 -24 6 -42 18 -50 20 -15 23 -49 4 -61 -7 -5 -10 -18
-6 -33 4 -14 2 -24 -5 -24 -7 0 -11 -23 -11 -60 0 -53 2 -60 20 -60 11 0 20
-7 20 -15 0 -8 -6 -15 -14 -15 -8 0 -16 -7 -20 -15 -3 -8 0 -15 7 -15 8 0 8
-3 1 -8 -5 -4 -15 -28 -20 -54 -10 -43 -9 -47 10 -52 35 -9 70 -6 89 8 18 14
24 56 7 56 -5 0 -7 6 -4 14 4 9 -3 16 -18 18 -23 4 -23 4 5 18 29 14 38 53 15
64 -10 5 -10 7 0 12 6 3 12 15 12 25 0 11 -4 17 -10 14 -5 -3 -10 -1 -10 4 0
6 6 11 13 11 8 0 7 3 -3 10 -12 7 -13 15 -3 40 9 25 9 30 -4 30 -15 0 -50 29
-36 31 4 1 17 2 28 3 12 0 21 9 23 22 3 22 -20 36 -62 38 -34 2 -27 22 11 33
l38 10 -37 2 c-24 1 -41 7 -47 19 -8 14 -10 10 -11 -20z m40 -198 c0 -5 -7
-10 -15 -10 -8 0 -15 5 -15 10 0 6 7 10 15 10 8 0 15 -4 15 -10z m10 -195 c0
-8 -9 -15 -20 -15 -11 0 -20 7 -20 15 0 8 9 15 20 15 11 0 20 -7 20 -15z"/>
<path d="M2304 3609 c-3 -6 -2 -15 4 -21 12 -12 43 -7 43 7 1 14 -39 26 -47
14z"/>
<path d="M4220 3570 c-9 -6 -10 -10 -3 -10 6 0 14 -8 16 -17 3 -11 5 -7 6 10
1 30 1 30 -19 17z"/>
<path d="M2238 3563 c7 -3 16 -2 19 1 4 3 -2 6 -13 5 -11 0 -14 -3 -6 -6z"/>
<path d="M4377 3553 c-3 -5 4 -15 16 -23 21 -12 21 -12 7 6 -8 10 -15 20 -16
22 -1 2 -4 -1 -7 -5z"/>
<path d="M4307 3528 c19 -18 25 -20 45 -9 23 11 23 11 1 7 -12 -2 -27 2 -34
10 -6 8 -16 14 -22 14 -6 0 -2 -10 10 -22z"/>
<path d="M2323 3526 c-29 -14 -38 -56 -11 -56 11 0 28 -5 39 -10 15 -9 19 -7
19 5 0 9 -4 13 -10 10 -5 -3 -10 1 -10 9 0 9 5 16 10 16 14 0 12 27 -2 32 -7
2 -23 0 -35 -6z"/>
<path d="M4198 3506 c5 -30 17 -46 36 -46 6 0 2 6 -9 14 -12 8 -16 20 -13 34
3 12 0 23 -6 25 -9 4 -11 -5 -8 -27z"/>
<path d="M3170 3526 c0 -2 9 -6 20 -9 11 -3 20 -1 20 4 0 5 -9 9 -20 9 -11 0
-20 -2 -20 -4z"/>
<path d="M3362 3500 c0 -14 2 -19 5 -12 2 6 2 18 0 25 -3 6 -5 1 -5 -13z"/>
<path d="M3400 3505 c0 -8 5 -15 10 -15 6 0 10 7 10 15 0 8 -4 15 -10 15 -5 0
-10 -7 -10 -15z"/>
<path d="M3685 3511 c-14 -4 -20 -15 -20 -33 -1 -16 3 -28 7 -28 4 0 8 -4 8
-10 0 -5 -15 -10 -32 -11 -61 -1 -78 -16 -20 -17 47 -1 54 2 62 23 10 27 42
25 63 -5 7 -10 27 -17 49 -18 31 -1 37 2 43 25 7 31 -9 53 -27 35 -27 -27
-101 -7 -109 29 -3 10 -11 13 -24 10z"/>
<path d="M4100 3505 c0 -8 -5 -15 -12 -15 -6 0 -9 -2 -6 -5 3 -3 13 -3 22 1
17 7 22 34 6 34 -5 0 -10 -7 -10 -15z"/>
<path d="M3612 3501 c2 -7 7 -12 11 -12 12 1 9 15 -3 20 -7 2 -11 -2 -8 -8z"/>
<path d="M4382 3497 c-13 -15 -1 -39 13 -29 12 8 16 42 5 42 -4 0 -12 -6 -18
-13z"/>
<path d="M2220 3494 c0 -17 17 -36 24 -26 3 5 -1 15 -9 22 -8 7 -15 9 -15 4z"/>
<path d="M3546 3482 c-3 -5 1 -9 9 -9 8 0 15 4 15 9 0 4 -4 8 -9 8 -6 0 -12
-4 -15 -8z"/>
<path d="M4420 3475 c0 -8 5 -15 10 -15 6 0 10 7 10 15 0 8 -4 15 -10 15 -5 0
-10 -7 -10 -15z"/>
<path d="M4015 3472 c-11 -8 -35 -48 -35 -58 0 -7 69 0 113 11 17 5 27 3 27
-4 0 -6 -8 -11 -17 -11 -15 0 -16 -2 -3 -10 10 -6 20 -3 34 12 25 26 8 38 -56
38 -33 0 -47 4 -50 15 -2 8 -7 11 -13 7z"/>
<path d="M3250 3463 c-24 -5 -23 -6 10 -17 23 -8 39 -9 48 -3 11 8 11 12 0 18
-14 9 -18 9 -58 2z"/>
<path d="M3890 3449 c0 -5 -4 -7 -10 -4 -5 3 -10 1 -10 -4 0 -6 7 -11 15 -11
8 0 15 7 15 15 0 8 -2 15 -5 15 -3 0 -5 -5 -5 -11z"/>
<path d="M3110 3440 c-8 -5 -11 -12 -7 -16 4 -4 13 -2 19 4 15 15 7 24 -12 12z"/>
<path d="M2348 3415 c-3 -14 -1 -28 3 -31 13 -7 11 -24 -2 -24 -6 0 -17 7 -26
15 -11 12 -12 19 -4 29 13 16 -2 32 -19 21 -18 -11 -10 -36 20 -67 36 -35 32
-52 -4 -19 -14 13 -32 21 -43 18 -14 -4 -13 -5 5 -6 34 -2 25 -35 -11 -39 -15
-2 -27 -8 -27 -14 0 -5 7 -8 15 -5 8 4 17 2 20 -3 4 -6 15 -10 26 -10 20 0 26
-24 9 -35 -6 -4 -8 -16 -5 -26 7 -20 6 -20 -14 -3 -11 10 -17 22 -14 28 4 6
-1 4 -11 -3 -17 -14 -17 -15 2 -22 28 -10 35 -57 10 -70 -16 -9 -17 -12 -4
-25 17 -16 11 -44 -10 -44 -11 0 -10 -6 2 -35 8 -20 12 -40 9 -45 -3 -5 -1
-19 6 -31 9 -17 13 -19 20 -8 4 7 11 10 15 6 4 -4 -1 -14 -12 -22 -11 -8 -14
-15 -6 -15 6 0 12 -5 12 -11 0 -11 -16 -9 -52 6 -13 5 -18 2 -18 -9 0 -9 7
-16 16 -16 12 0 15 -7 12 -23 -5 -24 16 -52 31 -43 5 3 8 -2 7 -10 0 -9 6 -18
14 -19 8 -2 23 -6 33 -10 14 -6 17 -1 17 33 0 26 -5 42 -15 46 -8 3 -15 10
-15 16 0 5 7 10 15 10 18 0 19 12 4 27 -8 8 -8 13 0 17 16 10 13 26 -3 20 -8
-3 -19 3 -25 15 -16 29 -14 34 14 29 25 -5 25 -4 24 56 0 43 -3 55 -9 41 -5
-11 -9 -14 -9 -7 -1 6 -5 12 -9 12 -4 0 -8 -17 -8 -37 0 -33 -3 -38 -26 -41
-33 -4 -44 22 -19 47 12 12 15 23 10 28 -13 13 0 43 18 43 10 0 12 6 8 19 -3
11 0 29 7 40 13 21 13 21 25 -2 12 -21 12 -21 13 11 0 20 -6 35 -15 38 -8 4
-15 11 -15 16 0 6 7 8 15 4 11 -4 14 1 12 22 -2 15 -7 33 -11 40 -4 7 -2 12 3
12 11 0 10 74 -1 85 -3 3 -8 -6 -10 -20z m-18 -116 c0 -5 -7 -9 -15 -9 -15 0
-20 12 -9 23 8 8 24 -1 24 -14z m-22 -314 c-3 -3 -9 2 -12 12 -6 14 -5 15 5 6
7 -7 10 -15 7 -18z m-7 -128 c-13 -13 -26 -3 -16 12 3 6 11 8 17 5 6 -4 6 -10
-1 -17z"/>
<path d="M4475 3390 c-10 -11 -14 -20 -8 -20 5 0 18 9 28 20 10 11 14 20 8 20
-5 0 -18 -9 -28 -20z"/>
<path d="M4170 3384 c0 -9 5 -12 12 -8 6 4 17 -1 25 -11 13 -19 19 -9 5 11
-13 19 -42 25 -42 8z"/>
<path d="M4396 3385 c4 -8 10 -12 15 -9 14 8 10 24 -6 24 -9 0 -12 -6 -9 -15z"/>
<path d="M2227 3373 c-12 -12 -7 -22 8 -17 8 4 15 10 15 15 0 11 -14 12 -23 2z"/>
<path d="M4260 3336 c0 -9 30 -14 35 -6 4 6 -3 10 -14 10 -12 0 -21 -2 -21 -4z"/>
<path d="M4345 3291 c-6 -11 13 -26 22 -17 4 3 1 6 -6 6 -7 0 -9 5 -6 10 3 6
4 10 1 10 -3 0 -7 -4 -11 -9z"/>
<path d="M4377 3247 c-3 -9 -2 -19 4 -23 15 -9 18 -2 9 20 -6 17 -7 18 -13 3z"/>
<path d="M4329 3221 c-3 -26 -4 -30 -11 -37 -4 -4 -3 -13 4 -21 9 -11 7 -15
-11 -20 -12 -3 -20 -12 -19 -22 2 -11 -6 -17 -24 -19 -24 -3 -26 -6 -18 -26 5
-15 5 -27 -2 -34 -6 -6 -6 -12 1 -17 6 -3 14 1 17 9 3 9 14 16 24 16 21 0 59
32 74 62 14 27 9 70 -5 47 -6 -11 -11 -11 -20 -2 -10 10 -10 18 -1 37 7 16 8
28 2 31 -6 4 -11 1 -11 -4z"/>
<path d="M4408 3188 c5 -5 16 -8 23 -6 8 3 3 7 -10 11 -17 4 -21 3 -13 -5z"/>
<path d="M1709 3179 c-12 -7 -11 -9 2 -9 9 0 21 -11 27 -25 10 -22 9 -25 -8
-25 -10 0 -22 5 -25 10 -4 6 -12 5 -21 -4 -19 -20 -18 -23 17 -35 24 -8 30
-15 26 -30 -3 -13 4 -28 21 -43 23 -21 25 -21 17 -3 -21 55 -16 70 15 43 12
-11 12 -10 0 5 -12 16 -12 20 1 28 12 8 12 10 -1 19 -13 8 -13 11 -1 19 11 7
10 12 -5 28 -25 26 -47 33 -65 22z"/>
<path d="M2230 3120 c-12 -7 -12 -10 3 -16 21 -8 29 -3 19 13 -5 8 -13 9 -22
3z"/>
<path d="M1597 3093 c-4 -3 -7 -17 -7 -30 0 -12 -4 -23 -10 -23 -5 0 -10 -7
-10 -15 0 -8 5 -14 11 -12 6 1 14 -4 16 -10 3 -9 -5 -13 -22 -13 -25 0 -27 3
-23 30 5 34 5 34 -43 17 -20 -7 -34 -18 -31 -25 5 -15 -14 -16 -24 -1 -4 7
-12 -2 -18 -22 -13 -39 -7 -48 39 -67 33 -13 187 -13 179 0 -3 4 -1 8 3 8 18
0 12 42 -7 47 -14 4 -18 13 -17 41 1 21 -3 36 -8 35 -6 -1 -11 6 -11 16 0 12
6 17 18 13 10 -2 18 -10 18 -16 0 -22 25 -66 38 -66 14 0 16 -27 2 -32 -5 -1
1 -15 14 -30 28 -33 66 -38 66 -9 0 11 6 22 13 24 6 3 -3 8 -20 12 -18 4 -33
11 -33 16 0 4 -7 15 -16 23 -8 9 -16 25 -17 35 -1 11 -9 22 -19 24 -10 3 -18
12 -18 21 0 11 -9 16 -28 16 -16 0 -32 -3 -35 -7z"/>
<path d="M1364 3003 c1 -12 -8 -17 -37 -19 -30 -2 -38 0 -33 12 7 18 -46 19
-94 3 -25 -9 -41 -9 -66 0 -42 15 -109 -1 -124 -30 -6 -11 -22 -24 -36 -29
-14 -6 -22 -14 -19 -20 8 -13 72 -13 77 0 2 5 18 12 36 16 26 5 32 3 32 -10 0
-15 15 -17 149 -14 83 2 153 7 157 10 4 4 1 21 -6 37 -7 17 -10 37 -6 46 3 10
-1 15 -13 15 -11 0 -18 -7 -17 -17z m-297 -50 c-15 -16 -17 -16 -17 -1 0 9 6
18 13 21 20 7 22 -2 4 -20z m223 7 c0 -5 -5 -12 -11 -16 -14 -8 -33 11 -25 25
7 11 36 4 36 -9z m-163 -32 c-3 -8 -6 -5 -6 6 -1 11 2 17 5 13 3 -3 4 -12 1
-19z"/>
<path d="M4640 2976 c0 -35 -4 -46 -16 -46 -9 0 -12 -5 -8 -12 4 -6 -1 -17
-10 -24 -27 -19 0 -27 31 -9 25 15 28 22 28 72 0 36 -5 58 -13 61 -8 2 -12
-10 -12 -42z"/>
<path d="M856 2993 c-15 -37 9 -46 38 -14 16 18 16 19 -8 23 -16 3 -27 0 -30
-9z"/>
<path d="M3160 2970 c-7 -5 -2 -9 14 -12 15 -3 29 -2 31 2 7 11 -30 19 -45 10z"/>
<path d="M3396 2971 c-10 -16 31 -51 59 -51 14 0 25 5 25 10 0 6 9 10 19 10
36 0 31 18 -7 24 -20 4 -49 9 -64 12 -14 3 -29 1 -32 -5z m54 -31 c0 -5 -4
-10 -10 -10 -5 0 -10 5 -10 10 0 6 5 10 10 10 6 0 10 -4 10 -10z"/>
<path d="M505 2961 c-18 -7 -17 -8 7 -13 19 -4 25 -1 21 9 -3 7 -6 13 -7 12 0
0 -10 -4 -21 -8z"/>
<path d="M3697 2955 c-5 -13 -14 -15 -39 -10 l-33 6 28 -16 c15 -9 39 -15 52
-13 22 3 22 5 11 27 -11 20 -14 21 -19 6z"/>
<path d="M455 2930 c-3 -5 -1 -10 4 -10 6 0 11 5 11 10 0 6 -2 10 -4 10 -3 0
-8 -4 -11 -10z"/>
<path d="M3268 2933 c7 -3 16 -2 19 1 4 3 -2 6 -13 5 -11 0 -14 -3 -6 -6z"/>
<path d="M4205 2900 c-3 -5 -3 -10 2 -10 4 0 18 -3 31 -6 16 -5 22 -2 22 10 0
18 -45 23 -55 6z"/>
<path d="M4468 2873 c6 -2 18 -2 25 0 6 3 1 5 -13 5 -14 0 -19 -2 -12 -5z"/>
<path d="M4640 2860 c0 -13 5 -18 15 -14 12 5 13 10 4 20 -15 19 -19 18 -19
-6z"/>
<path d="M4315 2849 c-9 -14 -5 -17 28 -23 30 -5 28 7 -3 24 -13 7 -21 7 -25
-1z"/>
<path d="M4465 2841 c-3 -5 -1 -12 5 -16 5 -3 10 1 10 9 0 18 -6 21 -15 7z"/>
<path d="M4578 2843 c7 -3 16 -2 19 1 4 3 -2 6 -13 5 -11 0 -14 -3 -6 -6z"/>
<path d="M2225 2830 c3 -5 8 -10 11 -10 2 0 4 5 4 10 0 6 -5 10 -11 10 -5 0
-7 -4 -4 -10z"/>
<path d="M2328 2756 c-9 -13 -13 -27 -10 -32 11 -14 45 -11 50 5 3 9 0 11 -8
6 -10 -6 -12 -2 -8 13 8 31 -4 34 -24 8z"/>
<path d="M4286 2755 c-9 -26 -7 -32 5 -12 6 10 9 21 6 23 -2 3 -7 -2 -11 -11z"/>
<path d="M4340 2724 c0 -12 4 -12 20 -4 11 6 20 12 20 13 0 2 -9 3 -20 4 -12
1 -20 -4 -20 -13z"/>
<path d="M4413 2733 c9 -2 23 -2 30 0 6 3 -1 5 -18 5 -16 0 -22 -2 -12 -5z"/>
<path d="M2220 2720 c0 -13 12 -19 26 -13 21 8 17 19 -6 19 -11 0 -20 -3 -20
-6z"/>
<path d="M4480 2721 c0 -6 5 -13 10 -16 6 -3 10 1 10 9 0 9 -4 16 -10 16 -5 0
-10 -4 -10 -9z"/>
<path d="M4336 2683 c-6 -14 -5 -15 5 -6 7 7 10 15 7 18 -3 3 -9 -2 -12 -12z"/>
<path d="M2360 2662 c-8 -3 -22 -10 -30 -18 -8 -7 -18 -13 -22 -13 -5 -1 -8
-4 -7 -8 0 -5 7 -7 16 -5 9 2 13 -2 11 -10 -3 -7 -18 -13 -34 -13 -22 0 -30 5
-32 22 -4 30 -29 36 -49 13 -22 -25 -28 -56 -7 -39 11 9 17 9 28 0 8 -7 33
-12 55 -13 31 0 41 -4 41 -16 0 -12 3 -13 12 -4 7 7 16 12 20 12 14 0 9 -22
-8 -34 -14 -11 -12 -14 13 -25 15 -7 25 -10 21 -6 -4 4 -2 17 4 29 7 11 11 26
9 31 -1 6 -8 31 -14 56 -9 33 -16 44 -27 41z m-4 -37 c9 -8 11 -15 6 -15 -5 0
-15 7 -22 15 -7 8 -9 15 -6 15 4 0 14 -7 22 -15z"/>
<path d="M4408 2662 c-16 -2 -28 -8 -28 -14 0 -6 -7 -20 -17 -30 -15 -17 -15
-18 15 -14 17 2 33 -1 35 -7 6 -18 53 1 54 23 1 11 -4 20 -12 20 -7 0 -15 6
-17 13 -2 7 -15 11 -30 9z m2 -22 c0 -5 -2 -10 -4 -10 -3 0 -8 5 -11 10 -3 6
-1 10 4 10 6 0 11 -4 11 -10z"/>
<path d="M4592 2545 c13 -29 33 -33 42 -8 7 18 -9 33 -36 33 -15 0 -16 -4 -6
-25z"/>
<path d="M2220 2540 c-10 -14 -22 -18 -43 -15 -18 4 -26 2 -22 -5 3 -5 13 -10
21 -10 8 0 14 -4 14 -10 0 -5 7 -10 15 -10 8 0 15 4 15 8 0 4 9 8 20 8 11 0
20 -4 20 -8 0 -4 -4 -8 -10 -8 -5 0 -7 -6 -4 -14 3 -8 13 -12 25 -9 10 3 19 1
19 -5 0 -8 10 -8 32 0 18 6 27 13 20 16 -6 2 -12 11 -12 20 -1 24 -29 71 -31
52 -1 -8 -1 -21 0 -27 4 -28 -52 -5 -60 25 -3 8 -9 6 -19 -8z"/>
<path d="M4484 2542 c3 -6 -1 -15 -10 -20 -9 -5 -15 -14 -13 -20 2 -5 12 0 22
13 12 17 14 26 5 31 -6 4 -8 3 -4 -4z"/>
<path d="M5070 2530 c0 -5 5 -10 10 -10 6 0 10 5 10 10 0 6 -4 10 -10 10 -5 0
-10 -4 -10 -10z"/>
<path d="M2710 2510 c-12 -7 -12 -12 -2 -22 9 -9 12 -9 12 4 0 9 6 19 13 21 6
3 8 6 2 6 -5 0 -17 -4 -25 -9z"/>
<path d="M4163 2510 c-30 -12 -29 -15 7 -15 18 -1 30 4 30 12 0 15 -6 15 -37
3z"/>
<path d="M4370 2510 c0 -5 5 -10 10 -10 6 0 10 5 10 10 0 6 -4 10 -10 10 -5 0
-10 -4 -10 -10z"/>
<path d="M2760 2501 c0 -5 5 -13 10 -16 6 -3 10 -2 10 4 0 5 -4 13 -10 16 -5
3 -10 2 -10 -4z"/>
<path d="M1108 2488 c6 -6 18 -8 28 -6 14 3 12 5 -9 10 -19 3 -25 2 -19 -4z"/>
<path d="M1382 2486 c7 -8 15 -12 17 -11 5 6 -10 25 -20 25 -5 0 -4 -6 3 -14z"/>
<path d="M1764 2483 c0 -10 -3 -18 -9 -18 -14 0 -50 -37 -59 -60 -8 -21 -21
-11 -29 20 -4 18 -5 18 -6 -2 -1 -27 -16 -30 -30 -5 -6 10 -11 12 -11 4 0 -10
-5 -10 -22 -1 -18 9 -20 9 -15 -4 4 -10 0 -14 -9 -13 -17 3 -18 5 -8 29 3 10
4 21 0 24 -3 4 -6 -1 -6 -10 0 -22 -20 -33 -30 -16 -7 10 -11 10 -25 -1 -12
-10 -18 -11 -24 -2 -4 8 -13 1 -25 -18 -9 -17 -14 -30 -9 -31 4 0 -3 -5 -16
-10 -18 -7 -28 -5 -43 7 -21 20 -31 16 -15 -6 7 -9 31 -21 55 -28 32 -10 42
-18 42 -33 0 -12 5 -19 13 -16 6 2 11 10 9 16 -2 9 3 9 18 1 11 -6 20 -15 20
-20 0 -6 5 -10 12 -10 6 0 2 10 -10 23 -15 16 -18 26 -11 40 13 22 51 24 43 2
-5 -11 -2 -13 12 -8 12 4 15 3 10 -5 -8 -13 12 -16 38 -6 12 5 14 10 6 19 -9
10 -6 16 9 25 14 7 21 7 21 0 0 -5 12 -10 28 -10 30 0 72 -38 54 -49 -6 -4 4
-17 24 -30 41 -29 43 -39 7 -43 l-28 -4 27 -14 c21 -10 25 -16 17 -26 -6 -7
-8 -18 -4 -23 3 -6 1 -20 -5 -31 -9 -16 -8 -20 5 -20 8 0 15 -5 15 -11 0 -7
-10 -9 -25 -7 -21 5 -23 3 -14 -14 6 -11 8 -31 5 -44 -5 -17 -2 -24 7 -24 16
0 47 32 47 48 0 7 4 12 9 12 4 0 9 28 11 63 3 94 5 110 15 131 5 11 4 26 -3
36 -9 15 -7 19 14 23 23 4 25 2 18 -17 -5 -11 -10 -414 -11 -893 l-3 -873
-742 0 c-624 0 -744 -2 -756 -14 -23 -22 -27 -101 -8 -131 l16 -25 811 0 811
0 29 29 29 29 0 651 c0 514 3 651 13 651 6 1 75 1 152 0 128 -1 142 -3 162
-22 l23 -21 0 -659 0 -658 25 -16 c29 -19 114 -15 140 6 13 11 15 96 15 717 0
775 3 737 -62 786 -56 41 -84 45 -282 41 l-186 -5 0 141 c0 136 1 142 25 165
24 25 24 25 237 25 247 1 248 1 256 80 4 43 1 55 -18 75 l-24 25 -250 -1
c-260 -1 -316 -9 -360 -47 -15 -13 -18 -14 -12 -2 4 8 0 6 -8 -4 -9 -11 -16
-14 -16 -8 0 7 -7 12 -15 12 -8 0 -15 7 -15 16 0 8 -4 13 -9 9 -11 -6 -7 28 6
48 4 6 -5 4 -21 -6 -31 -21 -46 -16 -26 8 8 9 9 15 2 15 -6 0 -16 -8 -21 -17
-8 -15 -10 -11 -11 20 0 20 -4 37 -9 37 -5 0 -8 -8 -7 -17z m-9 -43 c-3 -5 -1
-10 6 -10 10 0 10 -3 1 -12 -9 -9 -15 -9 -24 0 -10 10 -10 15 2 22 19 12 23
12 15 0z m-227 -51 c-2 -6 -8 -10 -13 -10 -5 0 -11 4 -13 10 -2 6 4 11 13 11
9 0 15 -5 13 -11z m229 -14 c8 -9 13 -19 10 -22 -6 -5 -37 21 -37 31 0 10 11
6 27 -9z m23 -45 c0 -5 -5 -10 -11 -10 -5 0 -7 5 -4 10 3 6 8 10 11 10 2 0 4
-4 4 -10z"/>
<path d="M1838 2493 c6 -2 10 -9 7 -14 -4 -5 0 -6 8 -3 8 3 20 -2 27 -10 7 -9
17 -13 22 -10 9 6 -54 45 -69 43 -5 0 -2 -3 5 -6z"/>
<path d="M2815 2490 c-11 -17 5 -32 21 -19 7 6 11 15 8 20 -7 12 -21 11 -29
-1z"/>
<path d="M1660 2481 c0 -17 18 -21 24 -6 3 9 0 15 -9 15 -8 0 -15 -4 -15 -9z"/>
<path d="M2060 2480 c-9 -6 -10 -10 -3 -10 6 0 15 5 18 10 8 12 4 12 -15 0z"/>
<path d="M2200 2470 c-13 -8 -12 -10 3 -10 9 0 17 5 17 10 0 12 -1 12 -20 0z"/>
<path d="M4128 2469 c-26 -15 -23 -32 3 -18 12 6 32 9 44 6 13 -2 30 0 37 4 9
6 4 9 -14 9 -14 0 -32 2 -40 5 -7 2 -21 0 -30 -6z"/>
<path d="M1923 2444 c-13 -14 -27 -23 -33 -19 -5 3 -10 -1 -10 -9 0 -23 49
-21 56 2 3 9 10 25 15 35 14 25 -3 20 -28 -9z"/>
<path d="M3068 2463 c6 -2 18 -2 25 0 6 3 1 5 -13 5 -14 0 -19 -2 -12 -5z"/>
<path d="M1090 2449 c0 -6 -7 -8 -17 -4 -12 4 -15 3 -8 -4 13 -12 40 -18 43
-8 5 16 1 27 -8 27 -5 0 -10 -5 -10 -11z"/>
<path d="M1238 2425 c-4 -20 0 -25 24 -30 39 -9 44 -2 13 15 -14 8 -23 20 -21
27 3 7 2 13 -3 13 -5 0 -11 -11 -13 -25z"/>
<path d="M2724 2401 c-19 -11 -37 -34 -43 -53 -8 -25 -11 -302 -9 -976 3 -941
3 -941 24 -962 12 -12 39 -25 60 -30 22 -6 488 -10 1062 -10 1111 0 1064 -2
1090 55 9 19 12 260 12 971 l0 944 -34 38 -34 37 -389 3 c-213 2 -398 0 -410
-3 -43 -10 -55 -109 -17 -150 l23 -25 331 0 330 0 0 -848 0 -849 -152 -5 c-84
-3 -499 -4 -923 -3 l-770 3 -3 851 -2 851 348 0 c342 0 349 0 368 21 27 30 27
125 0 145 -16 11 -93 14 -425 14 -383 0 -408 -1 -437 -19z"/>
<path d="M3783 2390 c2 -26 27 -35 27 -11 0 10 -6 21 -14 24 -10 4 -14 0 -13
-13z"/>
<path d="M889 2396 c-3 -4 -30 -7 -60 -7 -136 -2 -272 -61 -358 -155 -105
-115 -112 -157 -112 -688 0 -254 4 -442 10 -474 30 -151 115 -243 277 -298 70
-24 98 -28 239 -32 121 -3 178 0 235 12 139 29 253 104 300 196 47 92 50 127
50 596 0 408 -1 447 -20 519 -43 168 -147 265 -330 308 -72 18 -222 32 -231
23z m160 -211 c87 -23 141 -62 174 -125 l28 -55 0 -446 c1 -426 0 -448 -19
-485 -11 -21 -30 -48 -43 -59 -23 -19 -23 -19 1 8 27 31 35 108 17 161 -8 22
-7 31 1 34 7 2 12 12 12 23 0 12 -5 16 -15 13 -9 -4 -15 -19 -15 -41 0 -27 -3
-34 -15 -30 -8 4 -17 1 -21 -4 -4 -7 -10 -7 -18 1 -8 8 -7 13 4 20 17 11 9 13
-14 4 -12 -5 -13 -10 -5 -26 13 -24 5 -48 -17 -48 -12 0 -15 6 -10 25 7 28 -7
33 -30 10 -31 -31 -44 -19 -39 35 5 48 4 50 -20 50 -27 0 -32 -9 -13 -28 9 -9
9 -15 1 -23 -14 -14 -53 -2 -53 17 0 19 -46 19 -53 0 -3 -8 -1 -16 5 -18 8 -3
8 -9 0 -24 -8 -14 -7 -23 4 -35 8 -9 16 -26 17 -37 0 -11 5 -18 10 -15 4 3 6
11 3 19 -3 8 -1 14 5 14 6 0 1 9 -12 21 -16 13 -20 22 -12 25 7 3 9 12 6 20
-3 8 -1 14 5 14 12 0 38 -30 26 -30 -5 0 -3 -4 5 -9 9 -6 10 -14 3 -27 -12
-24 -5 -44 14 -44 9 0 12 -4 9 -10 -3 -5 3 -10 14 -10 14 0 19 -6 18 -20 -1
-14 -9 -20 -27 -20 -22 -1 -23 -2 -7 -11 19 -11 60 -3 52 11 -3 4 2 11 11 14
8 3 13 10 10 15 -3 5 3 11 15 14 17 5 20 1 18 -21 -3 -32 9 -72 21 -72 5 0 20
4 34 10 39 15 31 3 -14 -20 -59 -30 -207 -46 -311 -33 -114 14 -175 44 -214
108 l-30 48 -3 420 c-2 277 1 438 8 473 21 101 95 169 215 198 78 19 196 19
264 1z m-49 -1023 c0 -13 -12 -22 -22 -16 -10 6 -1 24 13 24 5 0 9 -4 9 -8z
m55 -32 c8 -13 -5 -13 -25 0 -13 8 -13 10 2 10 9 0 20 -4 23 -10z m-68 -6 c-3
-3 -12 -4 -19 -1 -8 3 -5 6 6 6 11 1 17 -2 13 -5z m213 -4 c12 -8 13 -12 2
-19 -8 -4 -13 -12 -13 -17 1 -5 -6 -9 -16 -9 -10 0 -18 10 -20 28 -3 21 0 27
14 27 10 0 25 -5 33 -10z m-183 -36 c-3 -3 -12 -4 -19 -1 -8 3 -5 6 6 6 11 1
17 -2 13 -5z"/>
<path d="M928 1978 c-2 -14 -13 -25 -28 -29 -14 -4 -18 -7 -10 -8 17 -1 54
-40 47 -48 -3 -2 -16 1 -29 8 -21 11 -22 11 -9 -4 8 -11 9 -17 3 -17 -6 0 -9
-7 -5 -16 4 -12 2 -15 -8 -12 -8 3 -13 11 -11 17 1 6 -7 11 -18 11 -11 0 -20
6 -20 14 0 13 -13 15 -62 7 -15 -2 4 -29 20 -27 11 1 16 -5 14 -17 -2 -9 3
-20 11 -23 7 -2 20 -20 27 -39 8 -19 18 -35 23 -35 5 0 6 -7 3 -16 -3 -9 -2
-12 4 -9 12 8 9 37 -5 47 -6 5 -3 14 7 25 14 13 20 15 30 5 9 -9 9 -12 0 -12
-10 0 -10 -3 0 -14 7 -8 16 -10 19 -5 3 5 20 2 38 -7 23 -11 29 -19 21 -24 -7
-5 -13 -22 -12 -39 0 -17 -3 -31 -8 -31 -5 0 -15 -3 -24 -6 -11 -4 -16 -1 -16
10 0 9 5 16 12 16 8 0 9 3 2 10 -17 17 -59 -11 -58 -37 1 -14 -3 -20 -10 -15
-6 3 -19 5 -29 4 -9 -2 -20 5 -24 14 -8 21 -43 57 -44 47 -1 -5 0 -16 1 -27 1
-10 -4 -23 -12 -27 -10 -7 -9 -9 3 -9 18 0 33 -26 23 -41 -3 -5 -12 -9 -20 -9
-11 0 -14 -15 -13 -72 1 -40 4 -63 6 -50 4 21 33 32 33 12 0 -5 -4 -10 -9 -10
-8 0 -6 -23 6 -60 4 -13 6 -13 16 1 12 16 47 22 47 8 0 -4 -8 -13 -17 -18 -16
-9 -16 -10 -2 -11 9 0 28 9 42 20 14 11 32 20 41 20 9 0 16 8 16 20 0 15 -6
20 -27 19 -16 0 -22 -3 -15 -6 24 -10 11 -23 -23 -23 -37 0 -44 10 -20 30 13
10 12 17 -5 50 l-19 38 21 6 c15 3 33 -3 54 -19 18 -14 36 -25 41 -25 4 0 2 4
-6 9 -7 5 -10 14 -7 20 11 17 24 13 32 -11 12 -38 30 -51 54 -36 24 15 26 28
5 28 -8 0 -15 7 -15 15 0 22 20 18 41 -6 15 -17 17 -31 13 -63 -4 -23 -11 -49
-16 -58 -7 -15 -4 -18 16 -18 27 0 46 -23 39 -49 -6 -24 45 -50 79 -41 15 5
29 5 32 2 3 -3 6 13 6 35 0 27 -5 43 -15 47 -8 3 -15 10 -15 15 0 5 7 16 15
25 18 18 20 92 3 100 -10 5 -10 7 0 12 8 4 12 28 12 69 0 58 -2 63 -20 58 -13
-3 -20 0 -20 8 0 8 9 20 20 27 11 7 20 19 20 27 0 16 -9 19 -35 9 -12 -5 -13
-9 -5 -14 22 -14 0 -30 -41 -30 -30 0 -46 6 -64 25 -13 15 -26 22 -29 16 -3
-5 0 -12 6 -15 7 -3 2 -3 -12 0 -14 4 -31 11 -38 17 -21 17 7 40 40 33 18 -3
28 -1 28 6 0 7 13 0 28 -15 26 -25 30 -26 48 -12 10 8 26 15 36 15 11 0 15 6
11 20 -4 14 0 20 12 20 14 0 16 6 11 32 -9 47 -22 55 -45 29 -24 -28 -61 -25
-77 7 -10 20 -12 21 -18 6 -5 -14 -9 -13 -27 10 -11 14 -27 26 -36 26 -11 0
-14 6 -9 24 4 16 1 26 -9 29 -9 4 -12 1 -9 -7 3 -7 -2 -16 -10 -19 -9 -4 -17
1 -21 14 -8 26 -23 24 -27 -3z m49 -64 c-3 -3 -12 -4 -19 -1 -8 3 -5 6 6 6 11
1 17 -2 13 -5z m38 -12 c0 -18 -20 -15 -23 4 -3 10 1 15 10 12 7 -3 13 -10 13
-16z m-30 -24 c23 -10 24 -13 9 -18 -10 -4 -13 -9 -8 -13 6 -3 22 0 37 8 30
15 37 11 37 -22 0 -18 -6 -23 -24 -23 -13 0 -33 -3 -43 -6 -15 -5 -15 -4 -3 5
13 9 13 11 -1 11 -9 0 -22 6 -29 14 -6 8 -19 12 -27 9 -11 -4 -14 -2 -9 5 4 7
14 12 21 12 9 0 12 6 9 15 -7 18 -3 19 31 3z m115 -58 c0 -5 -7 -7 -15 -4 -8
4 -12 10 -9 15 6 11 24 2 24 -11z m16 -158 c5 -22 3 -32 -6 -32 -7 0 -10 8 -7
20 3 11 -1 27 -9 34 -8 8 -14 20 -14 27 0 25 29 -15 36 -49z m-101 -3 c9 -13
6 -15 -25 -23 -14 -3 -19 -3 -12 0 6 3 12 12 12 20 0 16 16 19 25 3z m151 -16
c-10 -10 -19 5 -10 18 6 11 8 11 12 0 2 -7 1 -15 -2 -18z m-270 -25 c5 -7 0
-9 -14 -6 -12 3 -23 1 -25 -6 -2 -6 -8 -8 -12 -4 -11 11 4 28 25 28 10 0 22
-5 26 -12z m304 -4 c0 -2 -12 -4 -26 -4 -14 0 -23 4 -20 9 6 8 46 4 46 -5z
m-10 -63 c0 -12 -20 -25 -27 -18 -7 7 6 27 18 27 5 0 9 -4 9 -9z m-355 -41 c3
-5 1 -10 -4 -10 -6 0 -11 5 -11 10 0 6 2 10 4 10 3 0 8 -4 11 -10z m-5 -35 c0
-8 -7 -15 -16 -15 -14 0 -14 3 -4 15 7 8 14 15 16 15 2 0 4 -7 4 -15z m314
-69 c-6 -26 -18 -33 -28 -18 -6 10 23 56 31 49 2 -3 1 -16 -3 -31z"/>
<path d="M835 1930 c-3 -6 1 -7 9 -4 18 7 21 14 7 14 -6 0 -13 -4 -16 -10z"/>
<path d="M962 1459 c-11 -17 -9 -19 18 -19 l31 0 -21 -22 c-22 -24 -21 -32 3
-23 17 7 28 38 18 51 -3 5 -13 14 -21 21 -13 10 -18 8 -28 -8z"/>
<path d="M1017 1465 c3 -8 9 -12 14 -9 12 7 11 11 -5 17 -10 4 -13 1 -9 -8z"/>
<path d="M1035 1390 c-7 -12 27 -22 37 -12 6 6 1 12 -11 15 -12 3 -23 2 -26
-3z"/>
<path d="M900 1381 c0 -5 9 -7 20 -4 11 3 20 7 20 9 0 2 -9 4 -20 4 -11 0 -20
-4 -20 -9z"/>
<path d="M800 1320 c-9 -6 -10 -10 -3 -10 6 0 15 5 18 10 8 12 4 12 -15 0z"/>
<path d="M1037 1271 c-7 -27 11 -43 35 -30 15 8 18 6 19 -18 0 -15 3 -22 6
-15 2 6 10 12 16 12 7 0 23 9 37 20 24 20 25 21 6 35 -25 19 -31 19 -50 -1
-15 -14 -17 -14 -32 0 -20 21 -31 20 -37 -3z"/>
<path d="M801 1268 c0 -9 -9 -22 -18 -27 -15 -9 -12 -10 17 -11 19 0 30 4 24
8 -7 4 -14 16 -17 27 -4 15 -5 16 -6 3z"/>
<path d="M837 1066 c-3 -8 2 -17 11 -21 27 -11 81 -11 79 0 -5 29 -81 46 -90
21z"/>
<path d="M900 1006 c0 -2 7 -6 15 -10 8 -3 15 -1 15 4 0 6 -7 10 -15 10 -8 0
-15 -2 -15 -4z"/>
<path d="M5045 2390 c3 -5 8 -10 11 -10 2 0 4 5 4 10 0 6 -5 10 -11 10 -5 0
-7 -4 -4 -10z"/>
<path d="M3843 2369 c-13 -5 -23 -11 -23 -14 0 -4 5 -3 11 0 6 4 16 -1 24 -11
16 -23 24 -17 16 12 -5 18 -10 20 -28 13z"/>
<path d="M1670 2330 c0 -5 5 -10 10 -10 6 0 10 5 10 10 0 6 -4 10 -10 10 -5 0
-10 -4 -10 -10z"/>
<path d="M1648 2288 c9 -9 15 -9 24 0 9 9 7 12 -12 12 -19 0 -21 -3 -12 -12z"/>
<path d="M3930 2199 c0 -5 9 -9 20 -9 11 0 20 2 20 4 0 2 -9 6 -20 9 -11 3
-20 1 -20 -4z"/>
<path d="M3780 2151 c0 -17 15 -19 28 -5 11 12 9 14 -8 14 -11 0 -20 -4 -20
-9z"/>
<path d="M3776 2085 c-4 -14 -13 -25 -22 -25 -9 0 -12 5 -8 13 5 9 4 9 -6 0
-20 -18 -3 -34 26 -23 47 18 72 13 72 -16 0 -20 -4 -25 -19 -21 -12 3 -19 0
-19 -9 0 -8 -7 -14 -15 -14 -8 0 -15 -4 -15 -10 0 -5 7 -7 15 -4 22 9 18 -14
-5 -26 -11 -6 -20 -16 -19 -23 0 -9 2 -9 6 1 5 14 43 17 43 3 0 -5 9 -12 19
-16 23 -7 61 25 62 53 0 10 3 12 6 5 2 -7 14 -13 26 -12 12 0 16 3 10 6 -7 2
-13 10 -13 16 0 7 -10 17 -22 22 -13 6 -27 20 -33 33 -5 12 -13 22 -17 22 -5
0 -8 10 -8 22 0 17 -3 19 -12 10 -9 -9 -16 -8 -29 4 -15 14 -17 13 -23 -11z
m94 -129 c0 -6 -9 -17 -20 -24 -18 -11 -19 -10 -16 10 3 13 5 26 5 30 1 12 31
-3 31 -16z"/>
<path d="M3850 2090 c0 -5 7 -10 15 -10 8 0 15 5 15 10 0 6 -7 10 -15 10 -8 0
-15 -4 -15 -10z"/>
<path d="M3963 2035 c12 -25 37 -34 37 -14 0 12 -29 38 -42 39 -3 0 -1 -11 5
-25z"/>
<path d="M2351 2042 c-1 -7 -7 -20 -15 -28 -13 -12 -16 -12 -24 2 -5 9 -14 14
-21 10 -16 -10 -14 -26 4 -26 8 0 15 -4 15 -10 0 -16 30 -12 37 5 5 13 8 13
20 -5 8 -11 11 -25 8 -30 -3 -6 -1 -10 4 -10 11 0 15 13 12 38 -3 19 8 15 36
-15 15 -16 23 -21 18 -13 -16 30 -38 50 -55 50 -9 0 -22 10 -28 23 -6 12 -11
16 -11 9z"/>
<path d="M2425 2034 c-18 -13 -18 -14 4 -14 15 0 20 -4 15 -12 -6 -10 -4 -10
8 0 12 9 22 10 44 1 l29 -11 -27 -14 c-34 -18 -38 -38 -6 -28 27 8 53 33 53
51 0 16 20 17 21 0 1 -6 2 -25 3 -40 0 -16 5 -26 10 -23 5 3 11 -1 15 -9 8
-22 33 -18 39 7 7 25 1 38 -17 38 -8 0 -13 13 -13 33 0 17 2 26 5 20 2 -7 8
-13 13 -13 4 0 6 7 3 15 -4 8 -15 15 -26 15 -15 0 -18 -5 -14 -22 l6 -23 -11
22 c-10 19 -20 21 -73 21 -36 0 -70 -6 -81 -14z"/>
<path d="M3225 2040 c3 -5 8 -10 11 -10 2 0 4 5 4 10 0 6 -5 10 -11 10 -5 0
-7 -4 -4 -10z"/>
<path d="M3687 2036 c-8 -9 -23 -12 -37 -9 -27 7 -48 -19 -23 -28 25 -8 63 1
63 16 0 7 6 15 13 18 6 2 9 7 6 11 -4 4 -13 0 -22 -8z"/>
<path d="M4420 2039 c0 -5 5 -7 10 -4 6 3 10 8 10 11 0 2 -4 4 -10 4 -5 0 -10
-5 -10 -11z"/>
<path d="M4532 2043 c-7 -2 -17 -13 -22 -24 -8 -15 -7 -19 5 -19 8 0 14 5 13
11 -2 6 3 14 10 16 8 3 10 -1 6 -11 -3 -9 -1 -16 5 -16 6 0 11 7 11 15 0 8 5
15 10 15 6 0 10 5 10 10 0 10 -26 12 -48 3z"/>
<path d="M3070 2006 c0 -28 5 -37 28 -47 39 -17 52 -67 39 -153 -9 -68 -20
-83 -32 -45 -7 20 -8 19 -23 -10 -11 -24 -12 -37 -4 -54 19 -41 22 -57 8 -57
-16 0 -17 -32 -1 -45 16 -13 26 -55 14 -55 -5 0 -9 5 -9 10 0 6 -4 10 -10 10
-14 0 -12 -37 3 -43 9 -3 9 -9 -1 -27 -8 -12 -9 -19 -3 -15 6 3 11 1 11 -4 0
-6 5 -10 12 -9 6 2 15 -8 19 -22 6 -20 13 -13 11 11 -1 9 18 200 23 227 2 12
-1 22 -6 22 -16 0 -9 28 9 32 16 5 17 -21 17 -434 0 -507 -7 -473 95 -473 94
1 90 -14 90 306 l0 279 389 0 390 0 27 -23 c22 -19 25 -28 19 -55 -3 -18 -16
-38 -28 -45 -15 -8 -102 -14 -283 -17 l-261 -5 -37 -29 c-50 -38 -69 -85 -70
-171 -1 -98 28 -155 92 -187 46 -22 56 -23 366 -26 365 -3 356 -6 356 78 0 25
-5 51 -12 58 -9 9 -90 12 -305 12 -280 0 -294 1 -313 20 -11 11 -20 31 -20 45
0 14 9 34 20 45 19 19 33 20 258 20 142 0 253 5 277 11 88 25 131 115 123 257
-4 80 -22 113 -79 147 -32 19 -54 20 -464 22 -401 3 -431 4 -438 21 -12 27 14
94 43 109 19 10 132 13 471 13 505 0 474 -5 474 81 0 89 35 84 -535 83 -275 0
-497 2 -494 5 3 3 22 12 42 18 l37 13 -37 -5 c-25 -2 -38 0 -38 8 0 7 -5 5
-10 -4 -11 -19 -80 -14 -80 7 0 7 -4 15 -9 18 -5 4 -7 -2 -4 -13 7 -27 -10
-33 -47 -15 -27 14 -31 20 -25 43 4 14 8 31 9 36 1 6 5 15 9 21 4 7 0 14 -8
18 -9 3 -15 0 -15 -9 0 -20 -6 -19 -30 5 -31 31 -50 26 -50 -14z m70 -26 c8
-5 12 -12 9 -15 -8 -8 -39 5 -39 16 0 11 11 11 30 -1z m125 -100 c-3 -5 -10
-10 -16 -10 -5 0 -9 5 -9 10 0 6 7 10 16 10 8 0 12 -4 9 -10z m-10 -44 c-16
-13 -34 -22 -39 -19 -5 3 -1 10 8 15 9 5 14 13 11 19 -4 5 6 9 22 9 l28 0 -30
-24z m-50 -26 c3 -5 1 -18 -4 -27 -9 -16 -10 -16 -11 -1 0 12 -6 15 -22 10
-21 -5 -22 -4 -9 11 15 19 37 22 46 7z m-65 -132 c0 -5 -4 -8 -10 -8 -5 0 -10
10 -10 23 0 18 2 19 10 7 5 -8 10 -18 10 -22z"/>
<path d="M4606 2025 c4 -9 17 -14 33 -14 23 2 24 2 4 6 -13 2 -23 9 -23 14 0
5 -4 9 -10 9 -5 0 -7 -7 -4 -15z"/>
<path d="M3745 2019 c-4 -6 -14 -8 -22 -5 -8 3 -11 2 -8 -3 3 -6 -2 -14 -10
-18 -13 -8 -13 -15 -4 -41 6 -18 16 -31 23 -29 13 4 15 39 2 48 -13 10 3 29
24 29 10 0 20 7 24 15 6 17 -19 21 -29 4z"/>
<path d="M4256 2015 c-2 -7 2 -16 10 -19 21 -8 21 -8 27 8 3 8 -2 16 -13 19
-10 3 -21 -1 -24 -8z"/>
<path d="M4329 2028 c-5 -17 -4 -48 3 -48 13 0 9 -28 -4 -33 -7 -3 2 -6 20 -6
17 -1 32 -5 32 -10 0 -6 9 -9 20 -8 24 2 26 12 5 21 -8 3 -15 13 -15 23 0 22
-55 77 -61 61z m51 -58 c0 -5 -4 -10 -10 -10 -5 0 -10 5 -10 10 0 6 5 10 10
10 6 0 10 -4 10 -10z"/>
<path d="M4448 2018 c5 -5 16 -8 23 -6 8 3 3 7 -10 11 -17 4 -21 3 -13 -5z"/>
<path d="M3232 1995 c-12 -14 -18 -25 -13 -25 5 0 16 11 25 25 9 14 15 25 13
25 -2 0 -13 -11 -25 -25z"/>
<path d="M3350 2011 c0 -6 5 -13 10 -16 6 -3 10 1 10 9 0 9 -4 16 -10 16 -5 0
-10 -4 -10 -9z"/>
<path d="M4407 2000 c-3 -11 -1 -20 4 -20 5 0 9 9 9 20 0 11 -2 20 -4 20 -2 0
-6 -9 -9 -20z"/>
<path d="M1826 1982 c-4 -18 -5 -36 -2 -39 11 -12 17 5 14 39 l-3 33 -9 -33z"/>
<path d="M3946 1986 c3 -8 12 -12 20 -9 17 6 9 23 -11 23 -8 0 -12 -6 -9 -14z"/>
<path d="M1726 1975 c-17 -13 -18 -15 -3 -15 12 0 16 -7 13 -22 -5 -33 -50
-32 -54 1 -2 13 2 28 10 33 9 7 8 8 -7 6 -18 -3 -20 -11 -19 -75 0 -43 6 -78
14 -88 10 -12 10 -15 0 -15 -8 0 -10 -3 -7 -7 4 -3 16 2 28 12 17 17 22 17 29
5 12 -19 12 -30 1 -30 -5 0 -4 -11 2 -25 12 -24 37 -35 37 -16 0 5 10 13 22
17 15 4 25 1 35 -12 11 -15 13 -10 13 43 0 45 -4 62 -15 67 -8 3 -14 9 -14 13
1 4 -1 16 -6 26 -6 14 -10 15 -21 6 -8 -6 -11 -15 -8 -20 3 -5 -1 -9 -8 -9
-10 0 -9 -3 2 -10 11 -7 9 -11 -13 -19 -40 -15 -47 -14 -47 9 0 11 5 20 11 20
5 0 7 5 4 11 -4 6 3 20 15 31 14 13 19 26 14 37 -3 9 -7 22 -7 29 0 6 -1 12
-1 12 -1 0 -10 -7 -20 -15z m104 -159 c0 -3 -4 -8 -10 -11 -5 -3 -10 -1 -10 4
0 6 5 11 10 11 6 0 10 -2 10 -4z"/>
<path d="M4101 1978 c-1 -10 -8 -18 -16 -18 -8 0 -15 -7 -15 -16 0 -12 7 -15
26 -11 18 3 24 1 20 -9 -8 -21 37 -18 60 4 10 9 20 25 20 35 2 22 -1 21 -24
-3 -22 -24 -49 -18 -62 14 -7 17 -9 18 -9 4z"/>
<path d="M3490 1970 c0 -5 5 -10 10 -10 6 0 10 5 10 10 0 6 -4 10 -10 10 -5 0
-10 -4 -10 -10z"/>
<path d="M2275 1960 c-3 -5 1 -10 9 -10 9 0 16 5 16 10 0 6 -4 10 -9 10 -6 0
-13 -4 -16 -10z"/>
<path d="M3953 1940 c-13 -13 -20 -26 -17 -29 3 -3 9 1 15 9 7 12 11 13 18 2
5 -8 19 -12 32 -9 24 4 24 4 2 12 -12 4 -23 14 -25 23 -3 14 -7 12 -25 -8z"/>
<path d="M4510 1910 c0 -6 7 -10 15 -10 8 0 15 2 15 4 0 2 -7 6 -15 10 -8 3
-15 1 -15 -4z"/>
<path d="M4580 1861 c0 -5 5 -13 10 -16 6 -3 10 -2 10 4 0 5 -4 13 -10 16 -5
3 -10 2 -10 -4z"/>
<path d="M280 1790 c0 -5 4 -10 9 -10 6 0 13 5 16 10 3 6 -1 10 -9 10 -9 0
-16 -4 -16 -10z"/>
<path d="M272 1725 c-11 -12 -10 -15 3 -15 8 0 15 7 15 15 0 18 -2 18 -18 0z"/>
<path d="M1797 1715 c-7 -16 8 -29 23 -20 10 6 2 35 -10 35 -4 0 -10 -7 -13
-15z"/>
<path d="M4626 1684 c-4 -9 -13 -14 -21 -10 -8 3 -15 0 -15 -7 0 -7 -14 -25
-32 -40 -22 -19 -29 -30 -20 -34 9 -3 10 -9 2 -18 -7 -9 -6 -16 4 -24 11 -9
17 -8 28 6 7 11 28 20 47 21 48 3 71 19 71 48 0 21 -3 24 -27 18 -25 -7 -26
-6 -20 25 7 32 -6 43 -17 15z m19 -54 c3 -5 -1 -10 -9 -10 -9 0 -16 5 -16 10
0 6 4 10 9 10 6 0 13 -4 16 -10z"/>
<path d="M1719 1667 c-8 -7 -18 -20 -22 -30 -4 -10 -11 -15 -17 -12 -6 4 -10
-13 -10 -45 0 -47 1 -50 16 -36 8 9 19 14 23 11 13 -8 0 -55 -15 -55 -16 0
-18 -9 -6 -28 11 -17 42 -4 35 14 -3 8 1 14 11 14 9 0 16 -4 16 -8 0 -4 9 -8
20 -8 13 0 20 7 20 18 0 24 29 35 41 17 6 -9 9 8 9 47 0 46 -4 63 -15 68 -8 3
-15 10 -15 15 0 6 7 8 15 5 9 -4 15 0 15 9 0 16 -10 16 -50 0 -19 -8 -27 -7
-33 3 -10 17 -17 17 -38 1z m106 -67 c3 -5 1 -10 -4 -10 -6 0 -11 5 -11 10 0
6 2 10 4 10 3 0 8 -4 11 -10z"/>
<path d="M4657 1559 c-4 -16 -2 -17 14 -8 23 12 23 15 5 22 -8 3 -16 -2 -19
-14z"/>
<path d="M2273 1543 c-7 -2 -13 -20 -13 -39 0 -25 4 -32 15 -28 19 8 75 -17
75 -33 0 -7 -7 -13 -15 -13 -8 0 -15 5 -15 10 0 6 -13 10 -30 10 -20 0 -30 -5
-30 -15 0 -8 9 -15 20 -15 11 0 20 -7 20 -15 0 -8 -4 -15 -10 -15 -5 0 -10 -4
-10 -9 0 -5 10 -7 22 -3 18 4 20 2 16 -16 -4 -13 -1 -22 6 -22 6 0 19 -12 28
-27 11 -17 18 -22 18 -13 0 9 -5 21 -12 28 -8 8 -8 12 -1 12 7 0 11 30 11 85
0 69 -3 85 -15 85 -10 0 -14 6 -10 20 4 15 0 20 -14 20 -10 0 -19 -6 -19 -14
0 -15 -24 -28 -34 -19 -3 4 -1 12 5 20 12 14 11 14 -8 6z"/>
<path d="M3105 1360 c3 -5 8 -10 11 -10 2 0 4 5 4 10 0 6 -5 10 -11 10 -5 0
-7 -4 -4 -10z"/>
<path d="M1690 1345 c-7 -9 -10 -18 -7 -21 3 -3 10 4 17 15 13 25 8 27 -10 6z"/>
<path d="M3070 1331 c0 -12 5 -21 10 -21 6 0 10 -9 10 -21 0 -11 -4 -17 -10
-14 -7 4 -7 -3 0 -20 6 -15 8 -30 5 -35 -3 -4 2 -13 9 -19 11 -9 16 -9 22 0 4
8 3 9 -4 5 -7 -4 -12 -3 -12 3 0 5 6 12 13 14 10 4 10 6 0 6 -20 1 -15 19 7
26 12 4 20 15 20 28 0 16 -3 19 -9 8 -5 -7 -14 -10 -20 -7 -6 4 -8 12 -5 18 4
6 0 15 -7 20 -10 7 -8 8 8 5 13 -3 26 -1 29 4 3 5 -4 9 -15 9 -10 0 -26 3 -35
6 -12 4 -16 0 -16 -15z"/>
<path d="M1775 1330 c4 -6 -7 -10 -25 -10 -19 0 -29 -4 -25 -10 8 -13 47 -9
57 5 11 14 10 25 -3 25 -5 0 -7 -4 -4 -10z"/>
<path d="M1800 1304 c0 -8 5 -12 10 -9 6 3 10 10 10 16 0 5 -4 9 -10 9 -5 0
-10 -7 -10 -16z"/>
<path d="M2300 1290 c-13 -8 -12 -10 3 -10 9 0 17 5 17 10 0 12 -1 12 -20 0z"/>
<path d="M4570 1273 c0 -26 20 -71 20 -47 0 7 11 15 25 18 21 5 24 9 13 20 -8
7 -23 18 -36 25 -20 11 -22 10 -22 -16z m22 -25 c-9 -9 -12 -7 -12 12 0 19 3
21 12 12 9 -9 9 -15 0 -24z"/>
<path d="M1756 1262 c-3 -6 -2 -13 4 -17 6 -4 7 -12 4 -18 -5 -9 -4 -9 6 0 8
7 9 16 2 28 -6 11 -12 14 -16 7z"/>
<path d="M2274 1257 c-8 -9 -8 -15 1 -22 7 -5 16 -20 20 -32 5 -17 2 -23 -10
-23 -9 0 -13 -5 -9 -11 3 -6 1 -15 -6 -19 -7 -4 -9 -13 -6 -19 11 -17 26 -13
19 5 -4 10 1 17 16 21 11 3 21 12 21 19 0 8 6 14 14 14 8 0 18 5 21 10 4 6 3
10 -2 9 -31 -5 -43 2 -39 25 3 16 -1 27 -11 30 -18 7 -16 8 -29 -7z"/>
<path d="M1798 1243 c6 -2 18 -2 25 0 6 3 1 5 -13 5 -14 0 -19 -2 -12 -5z"/>
<path d="M1689 1233 c-14 -3 -17 -18 -17 -76 0 -40 2 -66 5 -59 2 6 11 12 19
12 8 0 14 4 14 10 0 12 39 7 48 -7 9 -13 50 -23 68 -16 8 3 14 12 14 20 0 13
-3 13 -15 3 -21 -17 -64 -4 -74 23 -5 12 -8 34 -7 49 2 28 -24 47 -55 41z m36
-73 c3 -5 2 -10 -4 -10 -5 0 -13 5 -16 10 -3 6 -2 10 4 10 5 0 13 -4 16 -10z"/>
<path d="M4650 1220 c-4 -20 -11 -25 -31 -23 -22 1 -26 -2 -22 -18 4 -14 -3
-23 -28 -34 -19 -8 -29 -14 -22 -15 6 0 14 -14 18 -31 l7 -31 25 23 c15 15 27
20 31 13 11 -16 41 -24 47 -14 4 6 2 10 -2 10 -5 0 -16 13 -25 28 -15 26 -16
30 -2 44 9 9 14 27 12 44 -4 28 -4 28 -8 4z m-60 -100 c0 -5 -4 -10 -10 -10
-5 0 -10 5 -10 10 0 6 5 10 10 10 6 0 10 -4 10 -10z"/>
<path d="M3100 1160 c-8 -5 -10 -10 -5 -10 6 0 17 5 25 10 8 5 11 10 5 10 -5
0 -17 -5 -25 -10z"/>
<path d="M2320 1100 c-31 -27 -1 -27 31 0 18 15 20 19 8 20 -9 0 -26 -9 -39
-20z"/>
<path d="M4495 1070 c-3 -6 1 -7 9 -4 18 7 21 14 7 14 -6 0 -13 -4 -16 -10z"/>
<path d="M1790 1066 c0 -2 8 -10 18 -17 15 -13 16 -12 3 4 -13 16 -21 21 -21
13z"/>
<path d="M1680 1050 c0 -5 5 -10 11 -10 5 0 7 5 4 10 -3 6 -8 10 -11 10 -2 0
-4 -4 -4 -10z"/>
<path d="M4470 1030 c0 -5 5 -10 11 -10 5 0 7 5 4 10 -3 6 -8 10 -11 10 -2 0
-4 -4 -4 -10z"/>
<path d="M4606 1015 c-3 -8 -1 -15 4 -15 13 0 22 18 11 24 -5 3 -11 -1 -15 -9z"/>
<path d="M1665 1000 c3 -5 11 -10 16 -10 6 0 7 5 4 10 -3 6 -11 10 -16 10 -6
0 -7 -4 -4 -10z"/>
<path d="M4573 950 c1 -11 5 -20 10 -20 5 0 7 -7 4 -15 -4 -8 -2 -17 2 -20 5
-2 11 10 15 27 4 21 2 34 -6 40 -20 12 -27 9 -25 -12z"/>
<path d="M1767 933 c-13 -13 -7 -32 13 -37 11 -3 29 -9 40 -12 16 -4 20 -1 20
21 0 21 -4 25 -19 20 -11 -3 -22 -1 -26 5 -7 12 -19 13 -28 3z"/>
<path d="M2270 934 c0 -16 17 -37 27 -33 6 2 2 13 -8 23 -11 11 -19 15 -19 10z"/>
<path d="M4627 902 c-9 -18 0 -37 18 -40 15 -2 17 -1 6 6 -11 8 -10 11 4 19
16 9 15 11 -4 16 -11 3 -22 2 -24 -1z"/>
<path d="M4577 864 c-11 -11 3 -24 25 -24 17 0 18 2 8 15 -13 16 -23 19 -33 9z"/>
<path d="M1744 805 c3 -8 2 -15 -2 -15 -4 0 -8 -9 -8 -20 0 -26 12 -26 19 1 5
17 11 20 31 17 20 -4 24 -2 16 7 -6 7 -20 10 -32 7 -14 -3 -19 -1 -14 6 4 7 2
12 -4 12 -7 0 -10 -7 -6 -15z"/>
<path d="M3107 763 c-4 -3 -7 -11 -7 -17 0 -6 5 -5 12 2 6 6 9 14 7 17 -3 3
-9 2 -12 -2z"/>
<path d="M3570 721 c0 -5 5 -13 10 -16 6 -3 10 -2 10 4 0 5 -4 13 -10 16 -5 3
-10 2 -10 -4z"/>
<path d="M2356 697 c3 -10 9 -15 12 -12 3 3 0 11 -7 18 -10 9 -11 8 -5 -6z"/>
<path d="M3110 686 c0 -19 -11 -21 -29 -3 -10 10 -11 8 -5 -6 4 -12 15 -17 33
-15 27 3 36 28 14 36 -7 2 -13 -3 -13 -12z"/>
<path d="M1561 671 c-10 -6 -10 -10 -1 -16 13 -8 24 -1 19 14 -3 6 -10 7 -18
2z"/>
<path d="M4630 620 c0 -5 5 -10 11 -10 5 0 7 5 4 10 -3 6 -8 10 -11 10 -2 0
-4 -4 -4 -10z"/>
</g>
</svg>
